<mxfile host="app.diagrams.net" modified="2022-04-20T02:09:05.639Z" agent="5.0 (Windows NT 10.0; Win64; x64) AppleWebKit/537.36 (KHTML, like Gecko) Chrome/100.0.4896.127 Safari/537.36 Edg/100.0.1185.44" etag="AWZ6Ifn7vNr2nOFovOse" version="17.4.5" type="github">
  <diagram id="U1_w_lC1zR6FHPFf_Dax" name="Page-1">
    <mxGraphModel dx="1374" dy="10794" grid="1" gridSize="10" guides="1" tooltips="1" connect="1" arrows="1" fold="1" page="1" pageScale="1" pageWidth="10000" pageHeight="10000" background="#FFFFFF" math="0" shadow="0">
      <root>
        <mxCell id="0" />
        <mxCell id="IRt3WfSRw66LWkPFxY0--1" value="Background" parent="0" />
        <mxCell id="1" value="Content" parent="0" />
        <mxCell id="ysaj5ytCUdBtgD3vat19-2" value="" style="edgeStyle=orthogonalEdgeStyle;rounded=0;orthogonalLoop=1;jettySize=auto;html=1;" parent="1" source="ilmDW_IhWBvHwEXT5Lw4-3" target="ysaj5ytCUdBtgD3vat19-1" edge="1">
          <mxGeometry relative="1" as="geometry" />
        </mxCell>
        <mxCell id="ilmDW_IhWBvHwEXT5Lw4-3" value="Receives FD" style="rounded=1;whiteSpace=wrap;html=1;fillColor=#dae8fc;strokeColor=#6c8ebf;" parent="1" vertex="1">
          <mxGeometry x="130" y="90" width="100" height="50" as="geometry" />
        </mxCell>
        <mxCell id="ysaj5ytCUdBtgD3vat19-4" value="Yes" style="edgeStyle=orthogonalEdgeStyle;rounded=0;orthogonalLoop=1;jettySize=auto;html=1;" parent="1" source="ysaj5ytCUdBtgD3vat19-1" target="ysaj5ytCUdBtgD3vat19-3" edge="1">
          <mxGeometry relative="1" as="geometry" />
        </mxCell>
        <mxCell id="Y_OoH8-zoaasMSbN7omh-2" value="No" style="edgeStyle=orthogonalEdgeStyle;rounded=0;orthogonalLoop=1;jettySize=auto;html=1;" parent="1" source="ysaj5ytCUdBtgD3vat19-1" target="Y_OoH8-zoaasMSbN7omh-1" edge="1">
          <mxGeometry relative="1" as="geometry" />
        </mxCell>
        <mxCell id="ysaj5ytCUdBtgD3vat19-1" value="is valid &lt;br&gt;buffer_size or fd?" style="rhombus;rounded=0;whiteSpace=wrap;html=1;labelBackgroundColor=none;labelBorderColor=none;fillColor=#fff2cc;strokeColor=#d6b656;" parent="1" vertex="1">
          <mxGeometry x="120" y="160" width="120" height="80" as="geometry" />
        </mxCell>
        <mxCell id="ysaj5ytCUdBtgD3vat19-6" value="Yes" style="edgeStyle=orthogonalEdgeStyle;rounded=0;orthogonalLoop=1;jettySize=auto;html=1;" parent="1" source="ysaj5ytCUdBtgD3vat19-3" target="ysaj5ytCUdBtgD3vat19-5" edge="1">
          <mxGeometry relative="1" as="geometry" />
        </mxCell>
        <mxCell id="Y_OoH8-zoaasMSbN7omh-4" value="No" style="edgeStyle=orthogonalEdgeStyle;rounded=0;orthogonalLoop=1;jettySize=auto;html=1;" parent="1" source="ysaj5ytCUdBtgD3vat19-3" target="Y_OoH8-zoaasMSbN7omh-3" edge="1">
          <mxGeometry relative="1" as="geometry" />
        </mxCell>
        <mxCell id="ysaj5ytCUdBtgD3vat19-3" value="is there anything&lt;br&gt;&amp;nbsp;from last read?" style="rhombus;whiteSpace=wrap;html=1;rounded=0;labelBackgroundColor=none;labelBorderColor=none;fillColor=#fff2cc;strokeColor=#d6b656;" parent="1" vertex="1">
          <mxGeometry x="120" y="270" width="120" height="80" as="geometry" />
        </mxCell>
        <mxCell id="ysaj5ytCUdBtgD3vat19-8" value="" style="edgeStyle=orthogonalEdgeStyle;rounded=0;orthogonalLoop=1;jettySize=auto;html=1;" parent="1" source="ysaj5ytCUdBtgD3vat19-5" target="ysaj5ytCUdBtgD3vat19-7" edge="1">
          <mxGeometry relative="1" as="geometry" />
        </mxCell>
        <mxCell id="ysaj5ytCUdBtgD3vat19-5" value="Call get_all function" style="ellipse;whiteSpace=wrap;html=1;rounded=0;labelBackgroundColor=none;labelBorderColor=none;fillColor=#e1d5e7;strokeColor=#9673a6;" parent="1" vertex="1">
          <mxGeometry x="140" y="390" width="80" height="80" as="geometry" />
        </mxCell>
        <mxCell id="ysaj5ytCUdBtgD3vat19-10" value="Yes" style="edgeStyle=orthogonalEdgeStyle;rounded=0;orthogonalLoop=1;jettySize=auto;html=1;" parent="1" source="ysaj5ytCUdBtgD3vat19-7" target="ysaj5ytCUdBtgD3vat19-9" edge="1">
          <mxGeometry relative="1" as="geometry" />
        </mxCell>
        <mxCell id="Y_OoH8-zoaasMSbN7omh-6" value="No" style="edgeStyle=orthogonalEdgeStyle;rounded=0;orthogonalLoop=1;jettySize=auto;html=1;" parent="1" source="ysaj5ytCUdBtgD3vat19-7" target="Y_OoH8-zoaasMSbN7omh-5" edge="1">
          <mxGeometry relative="1" as="geometry" />
        </mxCell>
        <mxCell id="ysaj5ytCUdBtgD3vat19-7" value="Got any content?" style="rhombus;whiteSpace=wrap;html=1;fillColor=#fff2cc;strokeColor=#d6b656;rounded=0;labelBackgroundColor=none;labelBorderColor=none;" parent="1" vertex="1">
          <mxGeometry x="120" y="490" width="120" height="80" as="geometry" />
        </mxCell>
        <mxCell id="ysaj5ytCUdBtgD3vat19-12" value="" style="edgeStyle=orthogonalEdgeStyle;rounded=0;orthogonalLoop=1;jettySize=auto;html=1;" parent="1" source="ysaj5ytCUdBtgD3vat19-9" target="ysaj5ytCUdBtgD3vat19-11" edge="1">
          <mxGeometry relative="1" as="geometry" />
        </mxCell>
        <mxCell id="ysaj5ytCUdBtgD3vat19-9" value="Call parse_line&lt;br&gt;function" style="ellipse;whiteSpace=wrap;html=1;fillColor=#e1d5e7;strokeColor=#9673a6;rounded=0;labelBackgroundColor=none;labelBorderColor=none;" parent="1" vertex="1">
          <mxGeometry x="140" y="610" width="80" height="80" as="geometry" />
        </mxCell>
        <mxCell id="ysaj5ytCUdBtgD3vat19-11" value="Return parsed line" style="rounded=1;whiteSpace=wrap;html=1;fillColor=#dae8fc;strokeColor=#6c8ebf;labelBackgroundColor=none;labelBorderColor=none;" parent="1" vertex="1">
          <mxGeometry x="130" y="720" width="100" height="50" as="geometry" />
        </mxCell>
        <mxCell id="ysaj5ytCUdBtgD3vat19-13" value="&lt;h1&gt;1.Get_next_line&lt;/h1&gt;&lt;div&gt;Return one line at time from a file descriptor.&lt;/div&gt;" style="text;html=1;strokeColor=none;fillColor=none;spacing=5;spacingTop=-20;whiteSpace=wrap;overflow=hidden;rounded=0;labelBackgroundColor=none;labelBorderColor=none;align=center;" parent="1" vertex="1">
          <mxGeometry x="40" y="-20" width="300" height="100" as="geometry" />
        </mxCell>
        <mxCell id="ysaj5ytCUdBtgD3vat19-14" value="&lt;h1&gt;2.Get_all&lt;/h1&gt;&lt;div&gt;Returns one or more lines from a &#39;FD&#39; based on the BUFFER_SIZE defined at compilation time.&lt;/div&gt;" style="text;html=1;strokeColor=none;fillColor=none;spacing=5;spacingTop=-20;whiteSpace=wrap;overflow=hidden;rounded=0;labelBackgroundColor=none;labelBorderColor=none;align=center;" parent="1" vertex="1">
          <mxGeometry x="450" y="-20" width="300" height="100" as="geometry" />
        </mxCell>
        <mxCell id="ysaj5ytCUdBtgD3vat19-18" value="" style="edgeStyle=orthogonalEdgeStyle;rounded=0;orthogonalLoop=1;jettySize=auto;html=1;" parent="1" source="ysaj5ytCUdBtgD3vat19-16" target="ysaj5ytCUdBtgD3vat19-17" edge="1">
          <mxGeometry relative="1" as="geometry" />
        </mxCell>
        <mxCell id="ysaj5ytCUdBtgD3vat19-16" value="Receives an fd, buffer and reminder" style="rounded=1;whiteSpace=wrap;html=1;fillColor=#dae8fc;strokeColor=#6c8ebf;" parent="1" vertex="1">
          <mxGeometry x="490" y="80" width="100" height="50" as="geometry" />
        </mxCell>
        <mxCell id="ysaj5ytCUdBtgD3vat19-22" value="No" style="edgeStyle=orthogonalEdgeStyle;rounded=0;orthogonalLoop=1;jettySize=auto;html=1;exitX=1;exitY=0.5;exitDx=0;exitDy=0;" parent="1" source="ysaj5ytCUdBtgD3vat19-17" target="ysaj5ytCUdBtgD3vat19-21" edge="1">
          <mxGeometry relative="1" as="geometry" />
        </mxCell>
        <mxCell id="ysaj5ytCUdBtgD3vat19-24" value="Yes" style="edgeStyle=orthogonalEdgeStyle;rounded=0;orthogonalLoop=1;jettySize=auto;html=1;" parent="1" source="ysaj5ytCUdBtgD3vat19-17" target="ysaj5ytCUdBtgD3vat19-23" edge="1">
          <mxGeometry relative="1" as="geometry" />
        </mxCell>
        <mxCell id="ysaj5ytCUdBtgD3vat19-17" value="bytes_read &amp;gt; 0 and there is no &#39;\n&#39;?" style="rhombus;whiteSpace=wrap;html=1;fillColor=#fff2cc;strokeColor=#d6b656;rounded=0;" parent="1" vertex="1">
          <mxGeometry x="480" y="160" width="120" height="80" as="geometry" />
        </mxCell>
        <mxCell id="ysaj5ytCUdBtgD3vat19-21" value="Return the content from specified fd" style="shape=document;whiteSpace=wrap;html=1;boundedLbl=1;fillColor=#f8cecc;strokeColor=#b85450;rounded=0;" parent="1" vertex="1">
          <mxGeometry x="660" y="165" width="100" height="75" as="geometry" />
        </mxCell>
        <mxCell id="ysaj5ytCUdBtgD3vat19-28" value="" style="edgeStyle=orthogonalEdgeStyle;rounded=0;orthogonalLoop=1;jettySize=auto;html=1;" parent="1" source="ysaj5ytCUdBtgD3vat19-23" target="ysaj5ytCUdBtgD3vat19-27" edge="1">
          <mxGeometry relative="1" as="geometry" />
        </mxCell>
        <mxCell id="ysaj5ytCUdBtgD3vat19-23" value="Read from fd and stores content in a buffer" style="whiteSpace=wrap;html=1;fillColor=#d5e8d4;strokeColor=#82b366;rounded=0;" parent="1" vertex="1">
          <mxGeometry x="490" y="288.75" width="100" height="50" as="geometry" />
        </mxCell>
        <mxCell id="ysaj5ytCUdBtgD3vat19-35" value="No" style="edgeStyle=orthogonalEdgeStyle;rounded=0;orthogonalLoop=1;jettySize=auto;html=1;" parent="1" source="ysaj5ytCUdBtgD3vat19-27" target="ysaj5ytCUdBtgD3vat19-34" edge="1">
          <mxGeometry relative="1" as="geometry" />
        </mxCell>
        <mxCell id="ysaj5ytCUdBtgD3vat19-37" value="Yes" style="edgeStyle=orthogonalEdgeStyle;rounded=0;orthogonalLoop=1;jettySize=auto;html=1;" parent="1" source="ysaj5ytCUdBtgD3vat19-27" target="ysaj5ytCUdBtgD3vat19-29" edge="1">
          <mxGeometry relative="1" as="geometry" />
        </mxCell>
        <mxCell id="ysaj5ytCUdBtgD3vat19-27" value="error while reading?" style="rhombus;whiteSpace=wrap;html=1;fillColor=#fff2cc;strokeColor=#d6b656;rounded=0;" parent="1" vertex="1">
          <mxGeometry x="480" y="378.75" width="120" height="80" as="geometry" />
        </mxCell>
        <mxCell id="ysaj5ytCUdBtgD3vat19-38" style="edgeStyle=orthogonalEdgeStyle;rounded=0;orthogonalLoop=1;jettySize=auto;html=1;entryX=0;entryY=0.5;entryDx=0;entryDy=0;" parent="1" source="ysaj5ytCUdBtgD3vat19-29" target="ysaj5ytCUdBtgD3vat19-16" edge="1">
          <mxGeometry relative="1" as="geometry">
            <Array as="points">
              <mxPoint x="450" y="524" />
              <mxPoint x="450" y="105" />
            </Array>
          </mxGeometry>
        </mxCell>
        <mxCell id="ysaj5ytCUdBtgD3vat19-29" value="Concatenates results and evaluates 1st condition" style="whiteSpace=wrap;html=1;fillColor=#d5e8d4;strokeColor=#82b366;rounded=0;" parent="1" vertex="1">
          <mxGeometry x="480" y="497.5" width="120" height="52.5" as="geometry" />
        </mxCell>
        <mxCell id="ysaj5ytCUdBtgD3vat19-34" value="Return NULL as content and free memory" style="shape=document;whiteSpace=wrap;html=1;boundedLbl=1;fillColor=#f8cecc;strokeColor=#b85450;rounded=0;" parent="1" vertex="1">
          <mxGeometry x="660" y="383.75" width="100" height="70" as="geometry" />
        </mxCell>
        <mxCell id="pJe8xmwlb2sEzMoSp14y-3" value="&lt;h1&gt;3.Parse_line&lt;/h1&gt;&lt;div&gt;Parse the content got from get_all function and return only one line&lt;/div&gt;" style="text;html=1;strokeColor=none;fillColor=none;spacing=5;spacingTop=-20;whiteSpace=wrap;overflow=hidden;rounded=0;labelBackgroundColor=none;labelBorderColor=none;align=center;" parent="1" vertex="1">
          <mxGeometry x="850" y="-20" width="300" height="100" as="geometry" />
        </mxCell>
        <mxCell id="pJe8xmwlb2sEzMoSp14y-10" value="" style="edgeStyle=orthogonalEdgeStyle;rounded=0;orthogonalLoop=1;jettySize=auto;html=1;" parent="1" source="pJe8xmwlb2sEzMoSp14y-4" target="pJe8xmwlb2sEzMoSp14y-9" edge="1">
          <mxGeometry relative="1" as="geometry" />
        </mxCell>
        <mxCell id="pJe8xmwlb2sEzMoSp14y-4" value="Receives the reading content" style="rounded=1;whiteSpace=wrap;html=1;fillColor=#dae8fc;strokeColor=#6c8ebf;" parent="1" vertex="1">
          <mxGeometry x="940" y="80" width="100" height="50" as="geometry" />
        </mxCell>
        <mxCell id="pJe8xmwlb2sEzMoSp14y-8" value="" style="edgeStyle=orthogonalEdgeStyle;rounded=0;orthogonalLoop=1;jettySize=auto;html=1;" parent="1" source="pJe8xmwlb2sEzMoSp14y-5" target="pJe8xmwlb2sEzMoSp14y-7" edge="1">
          <mxGeometry relative="1" as="geometry" />
        </mxCell>
        <mxCell id="pJe8xmwlb2sEzMoSp14y-5" value="Extract a full line from the content" style="whiteSpace=wrap;html=1;fillColor=#d5e8d4;strokeColor=#82b366;rounded=0;" parent="1" vertex="1">
          <mxGeometry x="940" y="280" width="100" height="50" as="geometry" />
        </mxCell>
        <mxCell id="pJe8xmwlb2sEzMoSp14y-16" value="" style="edgeStyle=orthogonalEdgeStyle;rounded=0;orthogonalLoop=1;jettySize=auto;html=1;" parent="1" source="pJe8xmwlb2sEzMoSp14y-7" target="pJe8xmwlb2sEzMoSp14y-15" edge="1">
          <mxGeometry relative="1" as="geometry" />
        </mxCell>
        <mxCell id="pJe8xmwlb2sEzMoSp14y-7" value="Saves the rest of the content in a static buffer" style="whiteSpace=wrap;html=1;fillColor=#d5e8d4;strokeColor=#82b366;rounded=0;" parent="1" vertex="1">
          <mxGeometry x="940" y="360" width="100" height="50" as="geometry" />
        </mxCell>
        <mxCell id="pJe8xmwlb2sEzMoSp14y-14" value="Yes" style="edgeStyle=orthogonalEdgeStyle;rounded=0;orthogonalLoop=1;jettySize=auto;html=1;entryX=0.5;entryY=0;entryDx=0;entryDy=0;" parent="1" source="pJe8xmwlb2sEzMoSp14y-9" target="pJe8xmwlb2sEzMoSp14y-5" edge="1">
          <mxGeometry relative="1" as="geometry" />
        </mxCell>
        <mxCell id="pJe8xmwlb2sEzMoSp14y-18" value="" style="edgeStyle=orthogonalEdgeStyle;rounded=0;orthogonalLoop=1;jettySize=auto;html=1;" parent="1" source="pJe8xmwlb2sEzMoSp14y-9" target="pJe8xmwlb2sEzMoSp14y-17" edge="1">
          <mxGeometry relative="1" as="geometry" />
        </mxCell>
        <mxCell id="pJe8xmwlb2sEzMoSp14y-9" value="Is there an &#39;\n&#39;?" style="rhombus;whiteSpace=wrap;html=1;fillColor=#fff2cc;strokeColor=#d6b656;rounded=0;" parent="1" vertex="1">
          <mxGeometry x="930" y="160" width="120" height="80" as="geometry" />
        </mxCell>
        <mxCell id="pJe8xmwlb2sEzMoSp14y-15" value="Return the line or content" style="shape=document;whiteSpace=wrap;html=1;boundedLbl=1;fillColor=#f8cecc;strokeColor=#b85450;rounded=0;" parent="1" vertex="1">
          <mxGeometry x="940" y="440" width="100" height="70" as="geometry" />
        </mxCell>
        <mxCell id="pJe8xmwlb2sEzMoSp14y-22" style="edgeStyle=orthogonalEdgeStyle;rounded=0;orthogonalLoop=1;jettySize=auto;html=1;entryX=1;entryY=0.5;entryDx=0;entryDy=0;" parent="1" source="pJe8xmwlb2sEzMoSp14y-17" target="pJe8xmwlb2sEzMoSp14y-15" edge="1">
          <mxGeometry relative="1" as="geometry">
            <Array as="points">
              <mxPoint x="1140" y="475" />
            </Array>
          </mxGeometry>
        </mxCell>
        <mxCell id="pJe8xmwlb2sEzMoSp14y-17" value="Copy the content" style="whiteSpace=wrap;html=1;fillColor=#d5e8d4;strokeColor=#82b366;rounded=0;" parent="1" vertex="1">
          <mxGeometry x="1090" y="175" width="100" height="50" as="geometry" />
        </mxCell>
        <mxCell id="Y_OoH8-zoaasMSbN7omh-1" value="Return NULL" style="shape=document;whiteSpace=wrap;html=1;boundedLbl=1;fillColor=#f8cecc;strokeColor=#b85450;rounded=0;labelBackgroundColor=none;labelBorderColor=none;" parent="1" vertex="1">
          <mxGeometry x="280" y="165" width="100" height="70" as="geometry" />
        </mxCell>
        <mxCell id="Y_OoH8-zoaasMSbN7omh-3" value="Return NULL" style="shape=document;whiteSpace=wrap;html=1;boundedLbl=1;fillColor=#f8cecc;strokeColor=#b85450;rounded=0;labelBackgroundColor=none;labelBorderColor=none;" parent="1" vertex="1">
          <mxGeometry x="280" y="275" width="100" height="70" as="geometry" />
        </mxCell>
        <mxCell id="Y_OoH8-zoaasMSbN7omh-5" value="Return NULL" style="shape=document;whiteSpace=wrap;html=1;boundedLbl=1;fillColor=#f8cecc;strokeColor=#b85450;rounded=0;labelBackgroundColor=none;labelBorderColor=none;" parent="1" vertex="1">
          <mxGeometry x="280" y="495" width="100" height="70" as="geometry" />
        </mxCell>
      </root>
    </mxGraphModel>
  </diagram>
</mxfile>
